# xmcd
#
# Track frame offsets: 
#        150
#        18694
#        35793
#        54355
#        76320
#        95768
#        116429
#        132736
#        151653
#        178940
#        190759
#        208522
#        226123
#        249178
#        264200
#        289019
#        307524
#        324217
#        339578
#
# Disc length: 4779 seconds
#
# Revision: 0
# Processed by: cddbd v1.5.2PL0 Copyright (c) Steve Scherf et al.
# Submitted via: ExactAudioCopy v0.99pb5
#
DISCID=f712a913
DTITLE=Various Artist - Faves - Disc 1
DYEAR=1900
DGENRE=Other
TTITLE0=The Arcade Fire - Haiti
TTITLE1=Blink-182 - I Miss You
TTITLE2=Tom Waits - Cold Cold Ground
TTITLE3=The Go-Betweens - Part Company
TTITLE4=The Dream Academy - Life In a Northern Town
TTITLE5=U2 - One
TTITLE6=The Proclaimers - I'm Gonna Be (500 Miles)
TTITLE7=Bob Marley and The Wailers - Waiting In Vain
TTITLE8=Filter - Take a Picture
TTITLE9=Buffalo Springfield - For What It's Worth (Stop , Hey What's t
TTITLE9=hat Sound)
TTITLE10=Devotchka - Til the End of Time
TTITLE11=Big Country - In a Big Country (Radio)
TTITLE12=Coldplay - Clocks
TTITLE13=Bruce Springsteen - Hungry Heart
TTITLE14=R.E.M. - Bang And Blame
TTITLE15=The Go-Betweens - Bye Bye Pride
TTITLE16=The Killers - Mr. Brightside
TTITLE17=The Smiths - Hand in Glove
TTITLE18=Modern English - I Melt With You
EXTD=
EXTT0=
EXTT1=
EXTT2=
EXTT3=
EXTT4=
EXTT5=
EXTT6=
EXTT7=
EXTT8=
EXTT9=
EXTT10=
EXTT11=
EXTT12=
EXTT13=
EXTT14=
EXTT15=
EXTT16=
EXTT17=
EXTT18=
PLAYORDER=
